#!OML:ASF Y:\EmotionMaleHayes\Project 1\Capture day 1\Session 1\Male1.ASF
:FULLY-SPECIFIED
:DEGREES
97
root 22.8923 15.9912 -0.346274 131.962 74.0088 143.742
lowerback 14.8064 -0.922426 -10.6275
upperback 4.09932 -2.6082 -3.31887
thorax -3.5718 -1.10803 2.90698
lowerneck -24.2223 -1.85017 -3.57076
upperneck 30.7136 -1.48741 2.04996
head 14.752 -0.589803 1.21141
rclavicle -9.56651e-016 2.54444e-014
rhumerus -93.376 13.8249 -79.4617
rradius 77.4767
rwrist -26.18
rhand -29.339 -34.2418
rfingers 7.12502
rthumb -2.67913 -64.2047
lclavicle -9.56651e-016 2.54444e-014
lhumerus -42.015 -28.994 85.8976
lradius 103.087
lwrist 4.52346
lhand -43.5715 -40.6962
lfingers 7.12502
lthumb -16.4086 -11.3702
rfemur -20.4128 -10.4588 5.60216
rtibia 30.6643
rfoot -3.87872 -10.3791
rtoes 21.9919
lfemur -0.594412 1.99548 -29.0546
ltibia 74.5832
lfoot -14.2062 -0.0447557
ltoes -15.4891
98
root 23.2875 15.8701 -0.362664 131.001 74.2159 143.465
lowerback 15.6493 -0.437719 -10.1993
upperback 4.30486 -1.97914 -3.2894
thorax -3.90166 -0.780688 2.61285
lowerneck -23.5553 -2.09541 -3.70028
upperneck 29.7122 -1.93847 2.3227
head 14.1849 -0.767506 1.2446
rclavicle -3.44146e-015 -2.62396e-014
rhumerus -92.7233 13.7927 -78.9433
rradius 77.8698
rwrist -25.4302
rhand -29.0164 -34.0332
rfingers 7.12502
rthumb -2.36753 -63.9998
lclavicle -3.44146e-015 -2.62396e-014
lhumerus -42.7704 -28.0582 86.4688
lradius 100.917
lwrist 4.65654
lhand -42.3602 -38.1332
lfingers 7.12502
lthumb -15.2422 -8.71476
rfemur -21.5609 -10.0656 5.72638
rtibia 35.5815
rfoot -5.3381 -9.70001
rtoes 23.5342
lfemur -1.76081 1.90195 -29.1038
ltibia 77.306
lfoot -14.8894 -0.823819
ltoes -13.3065
99
root 23.674 15.745 -0.381176 131.734 75.463 145.074
lowerback 16.5681 0.105709 -8.64227
upperback 4.56602 -1.08607 -3.02411
thorax -4.25861 -0.336995 1.87462
lowerneck -23.5284 -2.5354 -3.51307
upperneck 29.3737 -2.63384 2.21898
head 14.0536 -1.06428 1.03454
rclavicle 4.89507e-015 8.74653e-015
rhumerus -91.5625 13.5165 -78.3681
rradius 78.0811
rwrist -24.7261
rhand -29.0239 -33.8143
rfingers 7.12502
rthumb -2.3748 -63.7809
lclavicle 4.89507e-015 8.74653e-015
lhumerus -43.6556 -27.2239 87.2176
lradius 98.4255
lwrist 5.14549
lhand -40.5986 -35.2506
lfingers 7.12502
lthumb -13.5447 -5.7111
rfemur -22.9256 -8.93172 7.47924
rtibia 40.7559
rfoot -7.84169 -10.2069
rtoes 18.93
lfemur -2.80886 2.10805 -27.9027
ltibia 79.31
lfoot -14.8914 -1.55798
ltoes -12.8639
100
root 24.0579 15.6226 -0.394498 135.748 77.8043 150.052
lowerback 17.4014 0.62108 -5.98969
upperback 4.81573 0.000109715 -2.37378
thorax -4.56156 0.183652 0.860841
lowerneck -22.5952 -2.92393 -3.74433
upperneck 28.4601 -3.29598 2.67664
head 13.5059 -1.32412 1.13116
rclavicle -1.36789e-014 -2.20651e-014
rhumerus -89.8533 13.5187 -78.0372
rradius 77.5429
rwrist -24.2682
rhand -29.1205 -33.5682
rfingers 7.12502
rthumb -2.46813 -63.5337
lclavicle -1.36789e-014 -2.20651e-014
lhumerus -44.6487 -26.3855 88.0727
lradius 95.6072
lwrist 5.69317
lhand -39.1776 -32.2205
lfingers 7.12502
lthumb -12.1749 -2.59476
rfemur -23.149 -7.22984 10.8773
rtibia 44.0824
rfoot -9.93816 -10.412
rtoes 17.4476
lfemur -4.07576 2.78421 -25.0765
ltibia 80.9528
lfoot -15.162 -1.98358
ltoes -13.4682
101
root 24.4352 15.5197 -0.407092 146.162 80.8687 161.087
lowerback 17.8696 0.996917 -2.53529
upperback 5.0215 1.11714 -1.43223
thorax -4.63045 0.70783 -0.331615
lowerneck -22.3408 -3.20103 -3.50843
upperneck 27.9746 -3.79284 2.6532
head 13.2632 -1.52684 0.989606
rclavicle 2.57426e-014 -2.36554e-014
rhumerus -87.3401 14.17 -78.0874
rradius 76.3423
rwrist -23.6836
rhand -28.7038 -33.6669
rfingers 7.12502
rthumb -2.06567 -63.6367
lclavicle 2.57426e-014 -2.36554e-014
lhumerus -45.5527 -25.3611 88.7671
lradius 92.4736
lwrist 6.89966
lhand -37.8594 -29.1012
lfingers 7.12502
lthumb -10.9037 0.595723
rfemur -22.6753 -6.27112 15.5233
rtibia 46.2252
rfoot -11.7886 -9.73267
rtoes 19.0611
lfemur -6.07313 4.11659 -20.8247
ltibia 82.6411
lfoot -15.2409 -2.29619
ltoes -13.1506
102
root 24.8145 15.444 -0.43113 174.006 83.3556 189.063
lowerback 17.6285 1.08547 1.71545
upperback 5.19682 2.04064 -0.223169
thorax -4.23696 1.14479 -1.64331
lowerneck -22.7634 -3.19041 -2.83113
upperneck 27.9723 -3.89238 2.21864
head 13.3247 -1.55748 0.681688
rclavicle -3.69739e-014 5.56597e-015
rhumerus -84.2549 15.2234 -78.1557
rradius 75.2772
rwrist -23.1851
rhand -28.9477 -33.4881
rfingers 7.12502
rthumb -2.30116 -63.4554
lclavicle -3.69739e-014 5.56597e-015
lhumerus -46.5378 -23.8702 89.1813
lradius 89.4334
lwrist 8.27456
lhand -36.7104 -26.221
lfingers 7.12502
lthumb -9.79523 3.53115
rfemur -21.5993 -5.56923 21.1723
rtibia 47.1027
rfoot -13.4296 -8.93392
rtoes 23.0067
lfemur -8.76513 5.6097 -15.4886
ltibia 84.3481
lfoot -15.4445 -2.6119
ltoes -13.9404
103
root 25.198 15.459 -0.434416 173.373 84.2355 187.491
lowerback 16.3389 1.67135 0.899632
upperback 5.30648 2.65338 -0.045049
thorax -3.45849 1.45023 -1.06501
lowerneck -23.3216 -3.0938 -2.19978
upperneck 28.0599 -3.89707 1.9132
head 13.4526 -1.53132 0.447479
rclavicle -1.76421e-014 7.7526e-015
rhumerus -80.6023 16.2201 -77.8123
rradius 74.2685
rwrist -22.3553
rhand -29.1313 -33.379
rfingers 7.12502
rthumb -2.47847 -63.3444
lclavicle -1.76421e-014 7.7526e-015
lhumerus -47.4765 -22.2992 89.4894
lradius 86.4556
lwrist 9.68853
lhand -35.6853 -23.3962
lfingers 7.12502
lthumb -8.80611 6.40007
rfemur -21.1173 -5.0867 21.4159
rtibia 47.6811
rfoot -14.5209 -8.21581
rtoes 23.2439
lfemur -11.9899 6.56117 -15.7651
ltibia 85.2795
lfoot -15.7529 -2.72495
ltoes -16.4347
104
root 25.5803 15.5108 -0.441255 172.458 84.7703 186.634
lowerback 16.0178 2.03276 0.150978
upperback 5.6186 3.03768 0.242945
thorax -3.0032 1.64649 -0.3906
lowerneck -23.6176 -3.07656 -1.92919
upperneck 28.0631 -3.94935 1.81767
head 13.507 -1.5376 0.350624
rclavicle -2.98177e-016 4.37326e-015
rhumerus -76.5098 17.1051 -76.9586
rradius 72.9609
rwrist -20.5531
rhand -27.9987 -33.5838
rfingers 7.12502
rthumb -1.38467 -63.5591
lclavicle -2.98177e-016 4.37326e-015
lhumerus -48.2908 -20.955 90.0091
lradius 83.0897
lwrist 11.3288
lhand -35.683 -22.9111
lfingers 7.12502
lthumb -8.80395 6.88526
rfemur -19.4836 -4.16359 21.5663
rtibia 47.7289
rfoot -15.3318 -8.15525
rtoes 20.2746
lfemur -13.7806 6.94927 -16.0108
ltibia 85.1156
lfoot -15.5892 -2.84481
ltoes -17.5731
105
root 25.9554 15.5699 -0.44962 171.736 84.884 186.699
lowerback 16.4703 2.10747 -0.405415
upperback 6.06079 3.09843 0.539979
thorax -2.81935 1.68715 0.214882
lowerneck -23.6204 -3.02386 -1.88325
upperneck 27.8929 -3.89393 1.81566
head 13.4336 -1.51352 0.351774
rclavicle 3.58931e-014 -2.88238e-015
rhumerus -72.1727 17.8731 -75.9309
rradius 71.7064
rwrist -18.5351
rhand -26.9965 -33.2718
rfingers 7.12502
rthumb -0.416711 -63.2512
lclavicle 3.58931e-014 -2.88238e-015
lhumerus -49.0804 -19.6293 90.5472
lradius 79.5328
lwrist 13.1241
lhand -36.2256 -22.8596
lfingers 7.12502
lthumb -9.32747 6.91409
rfemur -17.0817 -3.42132 21.7088
rtibia 47.7839
rfoot -16.5493 -8.42035
rtoes 18.6234
lfemur -14.6675 6.70027 -16.1933
ltibia 84.1717
lfoot -15.2118 -3.56301
ltoes -14.6153
106
root 26.3181 15.6359 -0.466392 166.517 84.6956 182.35
lowerback 17.1951 2.06466 -0.999821
upperback 6.37737 2.9777 0.526919
thorax -2.89062 1.6366 0.536928
lowerneck -23.3921 -2.91639 -1.89599
upperneck 27.8849 -3.8416 2.15755
head 13.3917 -1.44177 0.501474
rclavicle -1.41945e-014 -9.88954e-015
rhumerus -68.142 18.1642 -75.0711
rradius 70.8629
rwrist -16.6177
rhand -26.7112 -32.4937
rfingers 7.12502
rthumb -0.141156 -62.4734
lclavicle -1.41945e-014 -9.88954e-015
lhumerus -50.2128 -18.4721 90.902
lradius 76.2511
lwrist 14.6031
lhand -37.1629 -23.6876
lfingers 7.12502
lthumb -10.2318 6.04358
rfemur -15.0146 -3.29506 21.242
rtibia 48.6754
rfoot -18.2824 -8.37169
rtoes 18.2833
lfemur -15.4167 6.16216 -17.0242
ltibia 82.9007
lfoot -14.9301 -3.90952
ltoes -10.5735
